<svg xmlns="http://www.w3.org/2000/svg" width="512" height="512" viewBox="0 0 512 512">
  <circle cx="256" cy="256" r="250" fill="#2196F3"/>
  <rect x="140" y="100" width="232" height="312" rx="8" fill="white" stroke="#e0e0e0" stroke-width="2"/>
  <circle cx="170" cy="150" r="6" fill="#2196F3"/>
  <circle cx="170" cy="200" r="6" fill="#2196F3"/>
  <circle cx="170" cy="250" r="6" fill="#2196F3"/>
  <circle cx="170" cy="300" r="6" fill="#2196F3"/>
  <circle cx="170" cy="350" r="6" fill="#2196F3"/>
  <rect x="190" y="130" width="140" height="12" fill="#4CAF50"/>
  <line x1="190" y1="170" x2="340" y2="170" stroke="#e8e8e8" stroke-width="2"/>
  <line x1="190" y1="200" x2="340" y2="200" stroke="#e8e8e8" stroke-width="2"/>
  <line x1="190" y1="230" x2="340" y2="230" stroke="#e8e8e8" stroke-width="2"/>
  <line x1="190" y1="260" x2="340" y2="260" stroke="#e8e8e8" stroke-width="2"/>
  <line x1="190" y1="290" x2="340" y2="290" stroke="#e8e8e8" stroke-width="2"/>
  <line x1="190" y1="320" x2="340" y2="320" stroke="#e8e8e8" stroke-width="2"/>
  <line x1="190" y1="350" x2="340" y2="350" stroke="#e8e8e8" stroke-width="2"/>
  <rect x="320" y="250" width="16" height="24" rx="4" fill="#FF5722"/>
  <path d="M 316 284 A 12 12 0 0 1 340 284" stroke="#FF5722" stroke-width="3" fill="none"/>
  <line x1="328" y1="290" x2="328" y2="300" stroke="#FF5722" stroke-width="3"/>
</svg>
